<svg xmlns="http://www.w3.org/2000/svg" viewBox="0 0 306.98 304.9"><defs><style>.cls-1{fill:none;}.cls-2{fill:#fff;}.cls-3{fill:#201e50;}.cls-4{fill:#5dfdcb;}.cls-5{fill:#ed474a;}.cls-6{fill:#fff07c;}.cls-7{fill:#f58f29;}.cls-8{fill:#f038ff;}</style></defs><g id="Layer_2" data-name="Layer 2"><g id="Layer_1-2" data-name="Layer 1"><polygon class="cls-1" points="230.06 82.29 230.06 222.16 137.98 152.23 230.06 82.29"/><line class="cls-1" x1="306.98" y1="54.55" x2="306.67" y2="54.41"/><line class="cls-1" x1="306.98" y1="152.45" x2="306.67" y2="152.35"/><path class="cls-2" d="M230.06,12.93V82.29L138,152.23l92.08,69.93v71.11c-3.52,12.25-14.69,9.16-15.19,9L90.08,189,36.32,229.54a13,13,0,0,1-14.86-.93L3.29,212c-7.25-8.48,0-16.95,0-16.95l46.62-42.59-44.81-41c-11-10-.78-19.62-.78-19.62l18-16.36c7.9-4.77,14.2-.16,14.2-.16l53.53,40.52L214.27,2.48h0c12-1.61,14.88,5.52,15.56,8.84A9.45,9.45,0,0,1,230.06,12.93Z"/><path class="cls-2" d="M297.31,271.79l-63,30.49s-10,5.88-19.48,0c.5.14,11.67,3.23,15.19-9V127l76.61,25.38V255.54A19.27,19.27,0,0,1,297.31,271.79Z"/><polygon class="cls-3" points="306.67 123.77 306.67 152.35 230.06 126.97 230.06 94.32 306.67 123.77"/><polygon class="cls-4" points="306.67 109.77 306.67 123.77 230.06 94.32 230.06 78.89 306.67 109.77"/><polygon class="cls-5" points="306.67 84.06 306.67 109.77 230.06 78.89 230.06 50.29 306.67 84.06 306.67 84.06"/><polygon class="cls-6" points="306.67 74.81 306.67 84.06 306.67 84.06 230.06 50.29 230.06 40.58 306.67 74.81 306.67 74.81"/><polygon class="cls-7" points="306.67 54.41 306.67 74.81 306.67 74.81 230.06 40.58 230.06 19.59 306.67 54.41"/><path class="cls-8" d="M306.67,47.05v7.36L230.06,19.59V12.93a9.45,9.45,0,0,0-.21-1.61C229.17,8,226.31.87,214.29,2.48l0,0a22.4,22.4,0,0,1,20.38,0c10.91,5.57,62.69,30.64,62.69,30.64S304.82,36.84,306.67,47.05Z"/></g></g></svg>